<?xml version="1.0" encoding="UTF-8" standalone="no"?><svg xmlns="http://www.w3.org/2000/svg" xmlns:xlink="http://www.w3.org/1999/xlink" contentScriptType="application/ecmascript" contentStyleType="text/css" height="666px" preserveAspectRatio="none" style="width:531px;height:666px;background:#FFFFFF;" version="1.1" viewBox="0 0 531 666" width="531px" zoomAndPan="magnify"><defs><filter height="300%" id="f1a3pzb3j7svgx" width="300%" x="-1" y="-1"><feGaussianBlur result="blurOut" stdDeviation="2.0"/><feColorMatrix in="blurOut" result="blurOut2" type="matrix" values="0 0 0 0 0 0 0 0 0 0 0 0 0 0 0 0 0 0 .4 0"/><feOffset dx="4.0" dy="4.0" in="blurOut2" result="blurOut3"/><feBlend in="SourceGraphic" in2="blurOut3" mode="normal"/></filter></defs><g><rect fill="#FFFFFF" filter="url(#f1a3pzb3j7svgx)" height="494.2734" style="stroke:#A80036;stroke-width:1.0;" width="10" x="155" y="91.5703"/><rect fill="#FFFFFF" filter="url(#f1a3pzb3j7svgx)" height="433.5703" style="stroke:#A80036;stroke-width:1.0;" width="10" x="280" y="121.9219"/><rect fill="#FFFFFF" filter="url(#f1a3pzb3j7svgx)" height="281.8125" style="stroke:#A80036;stroke-width:1.0;" width="10" x="375" y="182.625"/><line style="stroke:#A80036;stroke-width:1.0;stroke-dasharray:5.0,5.0;" x1="38" x2="38" y1="59.2188" y2="603.8438"/><line style="stroke:#A80036;stroke-width:1.0;stroke-dasharray:5.0,5.0;" x1="160" x2="160" y1="59.2188" y2="603.8438"/><line style="stroke:#A80036;stroke-width:1.0;stroke-dasharray:5.0,5.0;" x1="285" x2="285" y1="59.2188" y2="603.8438"/><line style="stroke:#A80036;stroke-width:1.0;stroke-dasharray:5.0,5.0;" x1="379.5" x2="379.5" y1="59.2188" y2="603.8438"/><line style="stroke:#A80036;stroke-width:1.0;stroke-dasharray:5.0,5.0;" x1="476.5" x2="476.5" y1="59.2188" y2="603.8438"/><rect fill="#FEFECE" filter="url(#f1a3pzb3j7svgx)" height="31.6094" style="stroke:#A80036;stroke-width:1.5;" width="62" x="5" y="22.6094"/><text fill="#000000" font-family="sans-serif" font-size="14" lengthAdjust="spacing" textLength="48" x="12" y="44.1426">FRONT</text><rect fill="#FEFECE" filter="url(#f1a3pzb3j7svgx)" height="31.6094" style="stroke:#A80036;stroke-width:1.5;" width="62" x="5" y="602.8438"/><text fill="#000000" font-family="sans-serif" font-size="14" lengthAdjust="spacing" textLength="48" x="12" y="624.377">FRONT</text><rect fill="#FEFECE" filter="url(#f1a3pzb3j7svgx)" height="49.2188" style="stroke:#A80036;stroke-width:1.5;" width="84" x="116" y="5"/><text fill="#000000" font-family="sans-serif" font-size="14" lengthAdjust="spacing" textLength="70" x="123" y="26.5332">Operations</text><text fill="#000000" font-family="sans-serif" font-size="14" lengthAdjust="spacing" textLength="59" x="128.5" y="44.1426">controller</text><rect fill="#FEFECE" filter="url(#f1a3pzb3j7svgx)" height="49.2188" style="stroke:#A80036;stroke-width:1.5;" width="84" x="116" y="602.8438"/><text fill="#000000" font-family="sans-serif" font-size="14" lengthAdjust="spacing" textLength="70" x="123" y="624.377">Operations</text><text fill="#000000" font-family="sans-serif" font-size="14" lengthAdjust="spacing" textLength="59" x="128.5" y="641.9863">controller</text><rect fill="#FEFECE" filter="url(#f1a3pzb3j7svgx)" height="49.2188" style="stroke:#A80036;stroke-width:1.5;" width="84" x="241" y="5"/><text fill="#000000" font-family="sans-serif" font-size="14" lengthAdjust="spacing" textLength="70" x="248" y="26.5332">Operations</text><text fill="#000000" font-family="sans-serif" font-size="14" lengthAdjust="spacing" textLength="45" x="260.5" y="44.1426">service</text><rect fill="#FEFECE" filter="url(#f1a3pzb3j7svgx)" height="49.2188" style="stroke:#A80036;stroke-width:1.5;" width="84" x="241" y="602.8438"/><text fill="#000000" font-family="sans-serif" font-size="14" lengthAdjust="spacing" textLength="70" x="248" y="624.377">Operations</text><text fill="#000000" font-family="sans-serif" font-size="14" lengthAdjust="spacing" textLength="45" x="260.5" y="641.9863">service</text><rect fill="#FEFECE" filter="url(#f1a3pzb3j7svgx)" height="49.2188" style="stroke:#A80036;stroke-width:1.5;" width="73" x="341.5" y="5"/><text fill="#000000" font-family="sans-serif" font-size="14" lengthAdjust="spacing" textLength="59" x="348.5" y="26.5332">Acquiring</text><text fill="#000000" font-family="sans-serif" font-size="14" lengthAdjust="spacing" textLength="45" x="355.5" y="44.1426">service</text><rect fill="#FEFECE" filter="url(#f1a3pzb3j7svgx)" height="49.2188" style="stroke:#A80036;stroke-width:1.5;" width="73" x="341.5" y="602.8438"/><text fill="#000000" font-family="sans-serif" font-size="14" lengthAdjust="spacing" textLength="59" x="348.5" y="624.377">Acquiring</text><text fill="#000000" font-family="sans-serif" font-size="14" lengthAdjust="spacing" textLength="45" x="355.5" y="641.9863">service</text><rect fill="#FEFECE" filter="url(#f1a3pzb3j7svgx)" height="49.2188" style="stroke:#A80036;stroke-width:1.5;" width="85" x="432.5" y="5"/><text fill="#000000" font-family="sans-serif" font-size="14" lengthAdjust="spacing" textLength="70" x="440" y="26.5332">Operations</text><text fill="#000000" font-family="sans-serif" font-size="14" lengthAdjust="spacing" textLength="71" x="439.5" y="44.1426">repositpory</text><rect fill="#FEFECE" filter="url(#f1a3pzb3j7svgx)" height="49.2188" style="stroke:#A80036;stroke-width:1.5;" width="85" x="432.5" y="602.8438"/><text fill="#000000" font-family="sans-serif" font-size="14" lengthAdjust="spacing" textLength="70" x="440" y="624.377">Operations</text><text fill="#000000" font-family="sans-serif" font-size="14" lengthAdjust="spacing" textLength="71" x="439.5" y="641.9863">repositpory</text><rect fill="#FFFFFF" filter="url(#f1a3pzb3j7svgx)" height="494.2734" style="stroke:#A80036;stroke-width:1.0;" width="10" x="155" y="91.5703"/><rect fill="#FFFFFF" filter="url(#f1a3pzb3j7svgx)" height="433.5703" style="stroke:#A80036;stroke-width:1.0;" width="10" x="280" y="121.9219"/><rect fill="#FFFFFF" filter="url(#f1a3pzb3j7svgx)" height="281.8125" style="stroke:#A80036;stroke-width:1.0;" width="10" x="375" y="182.625"/><polygon fill="#A80036" points="143,87.5703,153,91.5703,143,95.5703,147,91.5703" style="stroke:#A80036;stroke-width:1.0;"/><line style="stroke:#A80036;stroke-width:1.0;" x1="38" x2="149" y1="91.5703" y2="91.5703"/><text fill="#000000" font-family="sans-serif" font-size="13" font-weight="bold" lengthAdjust="spacing" textLength="7" x="45" y="86.7139">1</text><text fill="#000000" font-family="sans-serif" font-size="13" lengthAdjust="spacing" textLength="83" x="56" y="86.7139">HTTP /transfer</text><polygon fill="#A80036" points="268,117.9219,278,121.9219,268,125.9219,272,121.9219" style="stroke:#A80036;stroke-width:1.0;"/><line style="stroke:#A80036;stroke-width:1.0;" x1="165" x2="274" y1="121.9219" y2="121.9219"/><text fill="#000000" font-family="sans-serif" font-size="13" font-weight="bold" lengthAdjust="spacing" textLength="7" x="172" y="117.0654">2</text><text fill="#000000" font-family="sans-serif" font-size="13" lengthAdjust="spacing" textLength="85" x="183" y="117.0654">Init transaction</text><polygon fill="#A80036" points="465,148.2734,475,152.2734,465,156.2734,469,152.2734" style="stroke:#A80036;stroke-width:1.0;"/><line style="stroke:#A80036;stroke-width:1.0;" x1="290" x2="471" y1="152.2734" y2="152.2734"/><text fill="#000000" font-family="sans-serif" font-size="13" font-weight="bold" lengthAdjust="spacing" textLength="7" x="297" y="147.417">3</text><text fill="#000000" font-family="sans-serif" font-size="13" lengthAdjust="spacing" textLength="64" x="308" y="147.417">Save to log</text><polygon fill="#A80036" points="363,178.625,373,182.625,363,186.625,367,182.625" style="stroke:#A80036;stroke-width:1.0;"/><line style="stroke:#A80036;stroke-width:1.0;" x1="290" x2="369" y1="182.625" y2="182.625"/><text fill="#000000" font-family="sans-serif" font-size="13" font-weight="bold" lengthAdjust="spacing" textLength="7" x="297" y="177.7686">4</text><text fill="#000000" font-family="sans-serif" font-size="13" lengthAdjust="spacing" textLength="55" x="308" y="177.7686">Authorize</text><line style="stroke:#A80036;stroke-width:1.0;" x1="385" x2="427" y1="212.9766" y2="212.9766"/><line style="stroke:#A80036;stroke-width:1.0;" x1="427" x2="427" y1="212.9766" y2="225.9766"/><line style="stroke:#A80036;stroke-width:1.0;" x1="386" x2="427" y1="225.9766" y2="225.9766"/><polygon fill="#A80036" points="396,221.9766,386,225.9766,396,229.9766,392,225.9766" style="stroke:#A80036;stroke-width:1.0;"/><text fill="#000000" font-family="sans-serif" font-size="13" font-weight="bold" lengthAdjust="spacing" textLength="7" x="392" y="208.1201">5</text><text fill="#000000" font-family="sans-serif" font-size="13" lengthAdjust="spacing" textLength="62" x="403" y="208.1201">Authorized</text><polygon fill="#A80036" points="49,252.3281,39,256.3281,49,260.3281,45,256.3281" style="stroke:#A80036;stroke-width:1.0;"/><line style="stroke:#A80036;stroke-width:1.0;" x1="43" x2="374" y1="256.3281" y2="256.3281"/><text fill="#000000" font-family="sans-serif" font-size="13" font-weight="bold" lengthAdjust="spacing" textLength="7" x="55" y="251.4717">6</text><text fill="#000000" font-family="sans-serif" font-size="13" lengthAdjust="spacing" textLength="44" x="66" y="251.4717">Confirm</text><polygon fill="#A80036" points="143,282.6797,153,286.6797,143,290.6797,147,286.6797" style="stroke:#A80036;stroke-width:1.0;"/><line style="stroke:#A80036;stroke-width:1.0;" x1="38" x2="149" y1="286.6797" y2="286.6797"/><text fill="#000000" font-family="sans-serif" font-size="13" font-weight="bold" lengthAdjust="spacing" textLength="7" x="45" y="281.8232">7</text><text fill="#000000" font-family="sans-serif" font-size="13" lengthAdjust="spacing" textLength="82" x="56" y="281.8232">HTTP /confirm</text><polygon fill="#A80036" points="268,313.0313,278,317.0313,268,321.0313,272,317.0313" style="stroke:#A80036;stroke-width:1.0;"/><line style="stroke:#A80036;stroke-width:1.0;" x1="165" x2="274" y1="317.0313" y2="317.0313"/><text fill="#000000" font-family="sans-serif" font-size="13" font-weight="bold" lengthAdjust="spacing" textLength="7" x="172" y="312.1748">8</text><text fill="#000000" font-family="sans-serif" font-size="13" lengthAdjust="spacing" textLength="44" x="183" y="312.1748">Confirm</text><polygon fill="#A80036" points="363,343.3828,373,347.3828,363,351.3828,367,347.3828" style="stroke:#A80036;stroke-width:1.0;"/><line style="stroke:#A80036;stroke-width:1.0;" x1="290" x2="369" y1="347.3828" y2="347.3828"/><text fill="#000000" font-family="sans-serif" font-size="13" font-weight="bold" lengthAdjust="spacing" textLength="7" x="297" y="342.5264">9</text><text fill="#000000" font-family="sans-serif" font-size="13" lengthAdjust="spacing" textLength="44" x="308" y="342.5264">Confirm</text><line style="stroke:#A80036;stroke-width:1.0;" x1="385" x2="427" y1="377.7344" y2="377.7344"/><line style="stroke:#A80036;stroke-width:1.0;" x1="427" x2="427" y1="377.7344" y2="390.7344"/><line style="stroke:#A80036;stroke-width:1.0;" x1="386" x2="427" y1="390.7344" y2="390.7344"/><polygon fill="#A80036" points="396,386.7344,386,390.7344,396,394.7344,392,390.7344" style="stroke:#A80036;stroke-width:1.0;"/><text fill="#000000" font-family="sans-serif" font-size="13" font-weight="bold" lengthAdjust="spacing" textLength="14" x="392" y="372.8779">10</text><text fill="#000000" font-family="sans-serif" font-size="13" lengthAdjust="spacing" textLength="44" x="410" y="372.8779">Confirm</text><line style="stroke:#A80036;stroke-width:1.0;" x1="385" x2="427" y1="421.0859" y2="421.0859"/><line style="stroke:#A80036;stroke-width:1.0;" x1="427" x2="427" y1="421.0859" y2="434.0859"/><line style="stroke:#A80036;stroke-width:1.0;" x1="386" x2="427" y1="434.0859" y2="434.0859"/><polygon fill="#A80036" points="396,430.0859,386,434.0859,396,438.0859,392,434.0859" style="stroke:#A80036;stroke-width:1.0;"/><text fill="#000000" font-family="sans-serif" font-size="13" font-weight="bold" lengthAdjust="spacing" textLength="14" x="392" y="416.2295">11</text><text fill="#000000" font-family="sans-serif" font-size="13" lengthAdjust="spacing" textLength="16" x="410" y="416.2295">Do</text><polygon fill="#A80036" points="301,460.4375,291,464.4375,301,468.4375,297,464.4375" style="stroke:#A80036;stroke-width:1.0;"/><line style="stroke:#A80036;stroke-width:1.0;" x1="295" x2="379" y1="464.4375" y2="464.4375"/><text fill="#000000" font-family="sans-serif" font-size="13" font-weight="bold" lengthAdjust="spacing" textLength="14" x="307" y="459.5811">12</text><text fill="#000000" font-family="sans-serif" font-size="13" lengthAdjust="spacing" textLength="30" x="325" y="459.5811">Done</text><polygon fill="#A80036" points="465,490.7891,475,494.7891,465,498.7891,469,494.7891" style="stroke:#A80036;stroke-width:1.0;"/><line style="stroke:#A80036;stroke-width:1.0;" x1="290" x2="471" y1="494.7891" y2="494.7891"/><text fill="#000000" font-family="sans-serif" font-size="13" font-weight="bold" lengthAdjust="spacing" textLength="14" x="297" y="489.9326">13</text><text fill="#000000" font-family="sans-serif" font-size="13" lengthAdjust="spacing" textLength="76" x="315" y="489.9326">Update in log</text><polygon fill="#A80036" points="465,521.1406,475,525.1406,465,529.1406,469,525.1406" style="stroke:#A80036;stroke-width:1.0;"/><line style="stroke:#A80036;stroke-width:1.0;" x1="290" x2="471" y1="525.1406" y2="525.1406"/><text fill="#000000" font-family="sans-serif" font-size="13" font-weight="bold" lengthAdjust="spacing" textLength="14" x="297" y="520.2842">14</text><text fill="#000000" font-family="sans-serif" font-size="13" lengthAdjust="spacing" textLength="80" x="315" y="520.2842">Save to logfile</text><polygon fill="#A80036" points="176,551.4922,166,555.4922,176,559.4922,172,555.4922" style="stroke:#A80036;stroke-width:1.0;"/><line style="stroke:#A80036;stroke-width:1.0;" x1="170" x2="284" y1="555.4922" y2="555.4922"/><text fill="#000000" font-family="sans-serif" font-size="13" font-weight="bold" lengthAdjust="spacing" textLength="14" x="182" y="550.6357">15</text><text fill="#000000" font-family="sans-serif" font-size="13" lengthAdjust="spacing" textLength="30" x="200" y="550.6357">Done</text><polygon fill="#A80036" points="49,581.8438,39,585.8438,49,589.8438,45,585.8438" style="stroke:#A80036;stroke-width:1.0;"/><line style="stroke:#A80036;stroke-width:1.0;" x1="43" x2="159" y1="585.8438" y2="585.8438"/><text fill="#000000" font-family="sans-serif" font-size="13" font-weight="bold" lengthAdjust="spacing" textLength="14" x="55" y="580.9873">16</text><text fill="#000000" font-family="sans-serif" font-size="13" lengthAdjust="spacing" textLength="66" x="73" y="580.9873">HTTP Done</text><!--MD5=[d726665237c55cd2aeb6cc268c6d410b]
@startuml

participant front as "FRONT"
participant controller as "Operations\ncontroller"
participant service as "Operations\nservice"
participant ipsp as "Acquiring\nservice"
participant repository as "Operations\nrepositpory"

autonumber
front -> controller: HTTP /transfer
activate controller
controller -> service: Init transaction
activate service
service -> repository: Save to log
service -> ipsp: Authorize
activate ipsp
ipsp -> ipsp: Authorized
ipsp -> front: Confirm
front -> controller: HTTP /confirm
controller -> service: Confirm

service -> ipsp: Confirm
ipsp -> ipsp: Confirm
ipsp -> ipsp: Do
ipsp -> service: Done
deactivate ipsp
service -> repository: Update in log
service -> repository: Save to logfile
service -> controller: Done
deactivate service
controller -> front: HTTP Done
deactivate controller

deactivate service
@enduml

PlantUML version 1.2022.1(Tue Feb 01 21:19:58 MSK 2022)
(GPL source distribution)
Java Runtime: OpenJDK Runtime Environment
JVM: OpenJDK 64-Bit Server VM
Default Encoding: Cp1251
Language: ru
Country: RU
--></g></svg>